<?xml version="1.0" standalone="no"?>
<!DOCTYPE svg PUBLIC "-//W3C//DTD SVG 20010904//EN"
 "http://www.w3.org/TR/2001/REC-SVG-20010904/DTD/svg10.dtd">
<svg version="1.0" xmlns="http://www.w3.org/2000/svg"
 width="700.000000pt" height="700.000000pt" viewBox="0 0 700.000000 700.000000"
 preserveAspectRatio="xMidYMid meet">
<metadata>
Created by potrace 1.11, written by Peter Selinger 2001-2013
</metadata>
<g transform="translate(0.000000,700.000000) scale(0.100000,-0.100000)"
fill="#000000" stroke="none">
<path d="M5547 5984 c-1 -1 -72 -4 -157 -8 -85 -3 -166 -8 -180 -10 -14 -3
-54 -7 -90 -11 -81 -7 -284 -41 -370 -61 -36 -9 -72 -17 -80 -19 -95 -21 -316
-92 -422 -137 -185 -78 -396 -206 -543 -330 -90 -75 -504 -490 -664 -665 -94
-103 -71 -94 -211 -78 -25 3 -65 8 -90 10 -25 3 -61 7 -80 10 -19 2 -64 7
-100 10 -36 4 -96 10 -135 15 -110 15 -170 12 -230 -11 -51 -19 -87 -52 -388
-352 -183 -183 -345 -348 -360 -368 -52 -69 -67 -158 -41 -251 15 -52 27 -72
73 -118 52 -51 69 -60 221 -120 91 -35 169 -68 175 -72 5 -4 15 -8 22 -8 7 0
35 -9 61 -21 61 -27 65 -29 210 -86 l123 -48 -6 -40 c-3 -22 -9 -65 -15 -95
-5 -30 -12 -70 -15 -87 -3 -18 -7 -48 -10 -65 -3 -18 -8 -45 -10 -60 -3 -16
-7 -41 -10 -58 -8 -46 -14 -82 -19 -115 -3 -16 -12 -70 -20 -120 -9 -49 -18
-107 -22 -129 -3 -21 -7 -48 -10 -59 -24 -129 -22 -192 9 -259 27 -59 46 -82
97 -120 43 -33 133 -59 180 -53 19 2 55 7 80 10 25 3 52 8 60 10 8 2 33 6 55
10 22 3 65 10 95 15 30 5 73 12 95 15 38 5 57 9 115 20 51 10 77 15 145 25 39
5 81 12 95 15 14 3 45 8 70 11 25 3 48 8 51 10 3 1 25 6 50 9 l44 6 139 -348
c76 -191 149 -368 162 -393 66 -132 222 -191 364 -138 49 19 88 54 383 347
180 179 343 346 361 371 39 53 56 101 57 161 1 40 -2 72 -16 189 -2 19 -6 58
-9 85 -4 28 -9 70 -11 95 -3 25 -8 68 -10 95 -7 71 -16 146 -21 176 -3 22 7
36 64 86 180 161 617 595 715 711 67 79 183 266 252 407 41 83 75 156 75 162
0 6 9 33 21 60 42 97 122 396 143 528 2 17 8 50 12 75 9 57 10 61 18 145 4 39
9 80 11 93 9 58 19 282 18 427 -1 137 -4 169 -23 225 -46 136 -151 231 -288
261 -39 8 -257 19 -265 13z m232 -310 c51 -30 54 -51 48 -317 -4 -133 -9 -258
-12 -277 -2 -19 -7 -60 -10 -90 -6 -51 -38 -248 -49 -295 -90 -400 -222 -691
-426 -940 -32 -38 -170 -180 -307 -315 -274 -270 -327 -320 -454 -428 l-86
-73 8 -54 c4 -30 10 -87 14 -127 3 -40 8 -80 10 -88 2 -8 7 -49 10 -90 3 -41
8 -82 10 -90 2 -8 6 -46 10 -85 3 -38 8 -81 10 -95 2 -14 7 -53 10 -87 l6 -62
-309 -309 -310 -308 -137 345 c-76 190 -148 367 -161 392 -45 90 -150 157
-249 160 -35 1 -640 -95 -790 -125 -72 -14 -176 -28 -181 -24 -4 5 6 85 22
168 3 21 26 155 79 475 44 263 52 329 44 370 -20 105 -84 179 -198 226 -42 17
-89 37 -106 44 -16 8 -118 48 -225 90 -107 43 -208 83 -225 90 -16 7 -46 18
-65 26 -82 30 -97 8 236 340 253 252 310 304 332 303 35 0 175 -14 201 -19 11
-2 51 -6 88 -10 37 -3 79 -8 93 -10 14 -3 70 -9 125 -15 150 -15 198 -20 222
-25 15 -4 30 5 53 33 155 181 222 252 525 557 132 133 267 262 300 287 140
106 310 200 490 271 81 32 300 100 358 111 12 2 33 7 47 10 85 20 303 51 425
61 38 4 71 7 72 9 1 1 97 3 212 5 186 2 214 0 240 -15z"/>
<path d="M4604 5153 c-58 -13 -67 -16 -129 -44 -151 -68 -283 -232 -320 -398
-14 -64 -14 -196 0 -256 47 -206 194 -362 405 -432 64 -21 232 -25 300 -7 198
52 362 205 422 396 22 71 30 209 16 271 -5 23 -11 49 -13 57 -29 127 -140 271
-265 344 -124 73 -282 99 -416 69z m241 -308 c218 -99 225 -410 10 -520 -49
-25 -70 -30 -130 -30 -162 1 -284 119 -289 279 -5 144 85 258 229 291 64 15
117 9 180 -20z"/>
<path d="M2752 3848 c-36 -12 -92 -69 -93 -96 0 -9 -2 -26 -4 -36 -4 -23 19
-83 43 -109 9 -10 66 -42 127 -71 281 -134 459 -272 645 -502 52 -64 139 -210
194 -325 35 -74 75 -144 88 -155 71 -66 186 -46 227 39 26 55 21 86 -36 212
-58 128 -147 279 -231 392 -77 103 -249 278 -342 348 -36 27 -67 52 -70 56
-14 18 -268 162 -356 201 -117 53 -147 60 -192 46z"/>
<path d="M1661 3158 c-26 -7 -114 -89 -367 -342 -183 -183 -338 -345 -344
-360 -44 -118 73 -236 189 -190 40 17 670 643 695 691 56 110 -51 234 -173
201z"/>
<path d="M1954 2016 c-34 -15 -655 -631 -685 -679 -49 -81 2 -194 96 -211 80
-15 87 -9 446 351 356 357 360 362 344 436 -21 93 -114 141 -201 103z"/>
<path d="M3085 1704 c-38 -19 -661 -639 -681 -677 -38 -71 -13 -157 55 -195
45 -26 78 -28 126 -8 21 9 161 142 364 345 298 300 331 335 339 374 14 70 -18
136 -81 162 -46 19 -84 19 -122 -1z"/>
</g>
</svg>
